<svg width="48" height="48" viewBox="0 0 48 48" fill="none" xmlns="http://www.w3.org/2000/svg">
<circle cx="24" cy="24" r="23.5" stroke="#151718"/>
<path fill-rule="evenodd" clip-rule="evenodd" d="M24.2422 15.5699C21.8053 13.5009 18.2394 13.0946 15.4613 15.4683C12.4316 18.0569 11.99 22.4198 14.3875 25.5049C15.2887 26.6645 17.0413 28.3998 18.7178 29.9822C20.4164 31.5855 22.1107 33.1002 22.9462 33.8401C22.9516 33.8449 22.9571 33.8498 22.9628 33.8548C23.0405 33.9237 23.1418 34.0135 23.2397 34.0872C23.3583 34.1765 23.5328 34.2907 23.7675 34.3607C24.0767 34.4529 24.4088 34.4529 24.718 34.3607C24.9526 34.2907 25.1272 34.1765 25.2457 34.0872C25.3436 34.0135 25.445 33.9237 25.5226 33.8548C25.5283 33.8498 25.5338 33.8449 25.5392 33.8401C26.3747 33.1002 28.0691 31.5855 29.7676 29.9822C31.4441 28.3998 33.1968 26.6645 34.0979 25.5049C36.4853 22.4329 36.1133 18.0357 33.0122 15.4582C30.2048 13.1248 26.6763 13.5002 24.2422 15.5699ZM23.3688 17.9365C21.6579 15.9363 18.9578 15.5059 16.9553 17.2169C14.8497 19.016 14.5683 21.9892 16.2036 24.0936C16.9789 25.0913 18.6014 26.7096 20.2966 28.3096C21.8278 29.7549 23.3596 31.1309 24.2427 31.9157C25.1258 31.1309 26.6577 29.7549 28.1889 28.3096C29.8841 26.7096 31.5065 25.0913 32.2819 24.0936C33.9273 21.9762 33.6646 18.9911 31.5421 17.227C29.4836 15.5161 26.8189 15.9465 25.1166 17.9365C24.8981 18.192 24.5788 18.339 24.2427 18.339C23.9066 18.339 23.5873 18.192 23.3688 17.9365Z" fill="#151718"/>
</svg>
