<svg width="24" height="24" viewBox="0 0 24 24" fill="none" xmlns="http://www.w3.org/2000/svg">
<path d="M21.3333 0H2.66667C1.2 0 0 1.2 0 2.66667V21.3333C0 22.8 1.2 24 2.66667 24H21.3333C22.8 24 24 22.8 24 21.3333V2.66667C24 1.2 22.8 0 21.3333 0ZM13.3333 2.66667H21.3333V10.6667H17.3333L18.6667 5.33333L13.3333 6.66667V2.66667ZM2.66667 2.66667H10.6667V6.66667L5.33333 5.33333L6.66667 10.6667H2.66667V2.66667ZM10.6667 21.3333H2.66667V13.3333H6.66667L5.33333 18.6667L10.6667 17.3333V21.3333ZM21.3333 21.3333H13.3333V17.3333L18.6667 18.6667L17.3333 13.3333H21.3333V21.3333ZM15.5067 15.5067L12 14.2933L8.49333 15.5067L9.70667 12L8.49333 8.49333L12 9.70667L15.5067 8.49333L14.2933 12L15.5067 15.5067Z" fill="#151718"/>
</svg>
